<svg xmlns="http://www.w3.org/2000/svg" xmlns:xlink="http://www.w3.org/1999/xlink" width="500" zoomAndPan="magnify" viewBox="0 0 375 374.999991" height="500" preserveAspectRatio="xMidYMid meet" version="1.0"><defs><clipPath id="3467cddc71"><path d="M 27.421875 0 L 347.671875 0 L 347.671875 375 L 27.421875 375 Z M 27.421875 0 " clip-rule="nonzero"/></clipPath></defs><g clip-path="url(#3467cddc71)"><path fill="#ffffff" d="M 265.65625 125.199219 L 244.371094 125.199219 L 257.023438 110.566406 C 259.933594 111.257812 262.933594 111.628906 266.074219 111.628906 C 287.222656 111.628906 304.496094 94.453125 304.632812 73.308594 C 304.773438 52.027344 287.546875 34.625 266.074219 34.53125 C 244.925781 34.53125 227.605469 51.703125 227.515625 72.847656 C 227.46875 78.296875 228.578125 83.699219 230.746094 88.636719 L 199.621094 125.199219 L 186 125.199219 L 147.117188 77.140625 C 152.011719 69.246094 154.691406 60.105469 154.78125 50.734375 C 154.875 37.253906 149.703125 24.558594 140.238281 15.003906 C 130.769531 5.402344 118.164062 0.09375 104.355469 0 C 76.742188 0 54.113281 22.484375 53.929688 50.136719 C 53.835938 63.617188 59.007812 76.3125 68.476562 85.914062 C 77.941406 95.515625 90.59375 100.824219 104.355469 100.917969 C 107.957031 100.917969 111.558594 100.546875 115.023438 99.808594 L 135.480469 125.292969 L 109.390625 125.292969 C 72.492188 125.199219 27.515625 136.324219 27.515625 212.542969 L 27.515625 293.101562 C 27.515625 338.160156 64.363281 375 109.433594 375 L 265.65625 375 C 310.683594 375 347.578125 338.160156 347.578125 293.101562 L 347.578125 212.542969 C 347.578125 144.820312 302.554688 125.199219 265.65625 125.199219 Z M 273.878906 327.679688 L 101.214844 327.679688 C 88.515625 327.679688 77.804688 316.96875 77.804688 304.273438 L 77.894531 212.542969 L 77.894531 198.554688 C 78.355469 186.230469 88.839844 175.980469 101.214844 175.980469 L 273.878906 175.980469 C 286.578125 175.980469 297.289062 186.691406 297.289062 199.386719 L 297.199219 291.164062 L 297.289062 291.164062 L 297.289062 304.273438 C 297.289062 316.96875 286.578125 327.679688 273.878906 327.679688 Z M 273.878906 327.679688 " fill-opacity="1" fill-rule="nonzero"/></g><path fill="#ff0a54" d="M 152.703125 278.976562 C 152.613281 264.109375 152.519531 239.734375 152.429688 224.871094 C 152.335938 210.003906 163.464844 203.867188 176.210938 211.207031 C 188.910156 218.59375 210.152344 230.640625 222.851562 238.027344 C 235.550781 245.414062 235.828125 257.554688 223.171875 265.082031 C 210.519531 272.605469 189.140625 284.886719 176.488281 292.363281 C 163.878906 299.890625 152.75 293.839844 152.703125 278.976562 Z M 152.703125 278.976562 " fill-opacity="1" fill-rule="nonzero"/></svg>