<svg xmlns="http://www.w3.org/2000/svg" xmlns:xlink="http://www.w3.org/1999/xlink" width="500" zoomAndPan="magnify" viewBox="0 0 375 91.5" height="122" preserveAspectRatio="xMidYMid meet" version="1.0"><defs><g/><clipPath id="ea2c7c2d0b"><path d="M 1.019531 0 L 79.363281 0 L 79.363281 91.003906 L 1.019531 91.003906 Z M 1.019531 0 " clip-rule="nonzero"/></clipPath></defs><g clip-path="url(#ea2c7c2d0b)"><path fill="#ffffff" d="M 59.296875 30.609375 L 54.089844 30.609375 L 57.1875 27.03125 C 57.898438 27.199219 58.632812 27.289062 59.402344 27.289062 C 64.574219 27.289062 68.800781 23.089844 68.832031 17.921875 C 68.867188 12.71875 64.652344 8.464844 59.402344 8.441406 C 54.226562 8.441406 49.992188 12.640625 49.96875 17.808594 C 49.957031 19.140625 50.226562 20.460938 50.757812 21.667969 L 43.144531 30.609375 L 39.8125 30.609375 L 30.300781 18.859375 C 31.496094 16.929688 32.152344 14.695312 32.175781 12.402344 C 32.199219 9.109375 30.933594 6.003906 28.617188 3.667969 C 26.300781 1.320312 23.21875 0.0234375 19.839844 0 C 13.082031 0 7.546875 5.496094 7.503906 12.257812 C 7.480469 15.550781 8.746094 18.65625 11.0625 21.003906 C 13.378906 23.351562 16.472656 24.648438 19.839844 24.671875 C 20.71875 24.671875 21.601562 24.582031 22.449219 24.402344 L 27.453125 30.628906 L 21.070312 30.628906 C 12.042969 30.609375 1.042969 33.328125 1.042969 51.960938 L 1.042969 71.65625 C 1.042969 82.671875 10.054688 91.675781 21.082031 91.675781 L 59.296875 91.675781 C 70.3125 91.675781 79.339844 82.671875 79.339844 71.65625 L 79.339844 51.960938 C 79.339844 35.40625 68.324219 30.609375 59.296875 30.609375 Z M 61.308594 80.109375 L 19.070312 80.109375 C 15.964844 80.109375 13.34375 77.492188 13.34375 74.386719 L 13.367188 51.960938 L 13.367188 48.542969 C 13.480469 45.527344 16.042969 43.023438 19.070312 43.023438 L 61.308594 43.023438 C 64.417969 43.023438 67.035156 45.640625 67.035156 48.746094 L 67.015625 71.183594 L 67.035156 71.183594 L 67.035156 74.386719 C 67.035156 77.492188 64.417969 80.109375 61.308594 80.109375 Z M 61.308594 80.109375 " fill-opacity="1" fill-rule="nonzero"/></g><path fill="#ff0a54" d="M 31.667969 68.203125 C 31.644531 64.566406 31.621094 58.609375 31.597656 54.976562 C 31.578125 51.339844 34.300781 49.839844 37.417969 51.632812 C 40.523438 53.441406 45.71875 56.386719 48.828125 58.191406 C 51.933594 59.996094 52 62.964844 48.90625 64.804688 C 45.808594 66.644531 40.578125 69.648438 37.484375 71.476562 C 34.402344 73.316406 31.679688 71.835938 31.667969 68.203125 Z M 31.667969 68.203125 " fill-opacity="1" fill-rule="nonzero"/><g fill="#ff0a54" fill-opacity="1"><g transform="translate(85.427804, 76.4777)"><g><path d="M 18.796875 0.78125 C 13.835938 0.78125 9.851562 -0.476562 6.84375 -3 C 3.832031 -5.519531 2.285156 -9.0625 2.203125 -13.625 L 12.5 -13.625 C 12.570312 -11.71875 13.132812 -10.238281 14.1875 -9.1875 C 15.238281 -8.132812 16.757812 -7.609375 18.75 -7.609375 C 20.601562 -7.609375 22.003906 -7.96875 22.953125 -8.6875 C 23.910156 -9.40625 24.390625 -10.378906 24.390625 -11.609375 C 24.390625 -12.953125 23.773438 -13.988281 22.546875 -14.71875 C 21.316406 -15.457031 19.375 -16.242188 16.71875 -17.078125 C 13.9375 -17.953125 11.644531 -18.820312 9.84375 -19.6875 C 8.039062 -20.5625 6.492188 -21.867188 5.203125 -23.609375 C 3.910156 -25.359375 3.265625 -27.664062 3.265625 -30.53125 C 3.265625 -32.820312 3.910156 -34.867188 5.203125 -36.671875 C 6.492188 -38.484375 8.289062 -39.894531 10.59375 -40.90625 C 12.894531 -41.914062 15.53125 -42.421875 18.5 -42.421875 C 21.195312 -42.421875 23.71875 -41.925781 26.0625 -40.9375 C 28.40625 -39.945312 30.304688 -38.425781 31.765625 -36.375 C 33.234375 -34.332031 33.988281 -31.828125 34.03125 -28.859375 L 23.921875 -28.859375 C 23.878906 -30.328125 23.410156 -31.554688 22.515625 -32.546875 C 21.628906 -33.535156 20.289062 -34.03125 18.5 -34.03125 C 16.957031 -34.03125 15.757812 -33.691406 14.90625 -33.015625 C 14.050781 -32.347656 13.625 -31.4375 13.625 -30.28125 C 13.625 -28.9375 14.238281 -27.90625 15.46875 -27.1875 C 16.695312 -26.476562 18.617188 -25.707031 21.234375 -24.875 C 24.015625 -24.039062 26.304688 -23.1875 28.109375 -22.3125 C 29.921875 -21.4375 31.476562 -20.113281 32.78125 -18.34375 C 34.09375 -16.582031 34.75 -14.253906 34.75 -11.359375 C 34.75 -9.140625 34.125 -7.109375 32.875 -5.265625 C 31.625 -3.421875 29.796875 -1.953125 27.390625 -0.859375 C 24.992188 0.234375 22.128906 0.78125 18.796875 0.78125 Z M 18.796875 0.78125 "/></g></g></g><g fill="#ff0a54" fill-opacity="1"><g transform="translate(120.048196, 76.4777)"><g><path d="M 23.09375 -22.1875 L 16 -22.1875 L 16 -13.5 C 16 -12.039062 16.40625 -10.894531 17.21875 -10.0625 C 18.03125 -9.226562 19.171875 -8.8125 20.640625 -8.8125 L 23.09375 -8.8125 L 23.09375 0 L 17.609375 0 C 13.921875 0 11.070312 -1.03125 9.0625 -3.09375 C 7.0625 -5.15625 6.0625 -8.007812 6.0625 -11.65625 L 6.0625 -22.1875 L 1.015625 -22.1875 L 1.015625 -30.9375 L 6.0625 -30.9375 L 6.0625 -39.15625 L 16 -39.15625 L 16 -30.9375 L 23.09375 -30.9375 Z M 23.09375 -22.1875 "/></g></g></g><g fill="#ff0a54" fill-opacity="1"><g transform="translate(143.306755, 76.4777)"><g><path d="M 24.9375 -31.296875 L 24.9375 -22.484375 L 20.9375 -22.484375 C 18.914062 -22.484375 17.203125 -21.800781 15.796875 -20.4375 C 14.390625 -19.070312 13.6875 -17.316406 13.6875 -15.171875 L 13.6875 0 L 3.75 0 L 3.75 -30.9375 L 12.96875 -30.9375 L 12.96875 -27.375 C 15.351562 -29.988281 18.523438 -31.296875 22.484375 -31.296875 Z M 24.9375 -31.296875 "/></g></g></g><g fill="#ff0a54" fill-opacity="1"><g transform="translate(166.50582, 76.4777)"><g><path d="M 18.328125 -31.71875 C 21.265625 -31.71875 23.988281 -31.039062 26.5 -29.6875 C 29.019531 -28.34375 31.039062 -26.445312 32.5625 -24 C 34.09375 -21.5625 34.859375 -18.796875 34.859375 -15.703125 C 34.859375 -14.796875 34.757812 -13.742188 34.5625 -12.546875 L 11.609375 -12.546875 C 12.003906 -10.691406 12.796875 -9.242188 13.984375 -8.203125 C 15.171875 -7.171875 16.65625 -6.65625 18.4375 -6.65625 C 19.875 -6.65625 21.078125 -6.914062 22.046875 -7.4375 C 23.015625 -7.957031 23.835938 -8.734375 24.515625 -9.765625 L 33.96875 -9.765625 C 32.820312 -6.628906 30.898438 -4.085938 28.203125 -2.140625 C 25.503906 -0.191406 22.210938 0.78125 18.328125 0.78125 C 15.347656 0.78125 12.585938 0.109375 10.046875 -1.234375 C 7.515625 -2.585938 5.484375 -4.492188 3.953125 -6.953125 C 2.429688 -9.421875 1.671875 -12.257812 1.671875 -15.46875 C 1.671875 -18.6875 2.429688 -21.523438 3.953125 -23.984375 C 5.484375 -26.441406 7.515625 -28.34375 10.046875 -29.6875 C 12.585938 -31.039062 15.347656 -31.71875 18.328125 -31.71875 Z M 18.328125 -24.21875 C 16.660156 -24.21875 15.238281 -23.75 14.0625 -22.8125 C 12.894531 -21.882812 12.09375 -20.53125 11.65625 -18.75 L 25.109375 -18.75 C 24.796875 -20.375 24.0625 -21.691406 22.90625 -22.703125 C 21.757812 -23.710938 20.234375 -24.21875 18.328125 -24.21875 Z M 18.328125 -24.21875 "/></g></g></g><g fill="#ff0a54" fill-opacity="1"><g transform="translate(200.709817, 76.4777)"><g><path d="M 26.71875 -30.9375 L 35.875 -30.9375 L 35.875 0 L 26.71875 0 L 26.71875 -3.03125 C 24.414062 -0.488281 21.179688 0.78125 17.015625 0.78125 C 14.472656 0.78125 12.03125 0.113281 9.6875 -1.21875 C 7.351562 -2.550781 5.453125 -4.457031 3.984375 -6.9375 C 2.515625 -9.414062 1.78125 -12.257812 1.78125 -15.46875 C 1.78125 -18.6875 2.515625 -21.535156 3.984375 -24.015625 C 5.453125 -26.492188 7.351562 -28.394531 9.6875 -29.71875 C 12.03125 -31.050781 14.472656 -31.71875 17.015625 -31.71875 C 21.140625 -31.71875 24.375 -30.445312 26.71875 -27.90625 Z M 19.046875 -8.03125 C 21.179688 -8.03125 22.953125 -8.734375 24.359375 -10.140625 C 25.773438 -11.546875 26.484375 -13.320312 26.484375 -15.46875 C 26.484375 -17.613281 25.773438 -19.390625 24.359375 -20.796875 C 22.953125 -22.203125 21.179688 -22.90625 19.046875 -22.90625 C 16.898438 -22.90625 15.125 -22.203125 13.71875 -20.796875 C 12.3125 -19.390625 11.609375 -17.613281 11.609375 -15.46875 C 11.609375 -13.320312 12.3125 -11.546875 13.71875 -10.140625 C 15.125 -8.734375 16.898438 -8.03125 19.046875 -8.03125 Z M 19.046875 -8.03125 "/></g></g></g><g fill="#ff0a54" fill-opacity="1"><g transform="translate(238.066574, 76.4777)"><g><path d="M 40.75 -31.71875 C 43.050781 -31.71875 45.066406 -31.179688 46.796875 -30.109375 C 48.523438 -29.035156 49.863281 -27.523438 50.8125 -25.578125 C 51.757812 -23.640625 52.234375 -21.398438 52.234375 -18.859375 L 52.234375 0 L 42.296875 0 L 42.296875 -17.140625 C 42.296875 -18.921875 41.890625 -20.316406 41.078125 -21.328125 C 40.265625 -22.335938 39.164062 -22.84375 37.78125 -22.84375 C 36.4375 -22.84375 35.296875 -22.328125 34.359375 -21.296875 C 33.429688 -20.265625 32.96875 -18.878906 32.96875 -17.140625 L 32.96875 0 L 23.03125 0 L 23.03125 -17.140625 C 23.03125 -18.921875 22.625 -20.316406 21.8125 -21.328125 C 21 -22.335938 19.894531 -22.84375 18.5 -22.84375 C 17.15625 -22.84375 16.015625 -22.328125 15.078125 -21.296875 C 14.148438 -20.265625 13.6875 -18.878906 13.6875 -17.140625 L 13.6875 0 L 3.75 0 L 3.75 -30.9375 L 12.796875 -30.9375 L 12.796875 -27.78125 C 15.128906 -30.40625 18.023438 -31.71875 21.484375 -31.71875 C 23.378906 -31.71875 25.148438 -31.257812 26.796875 -30.34375 C 28.453125 -29.425781 29.734375 -28.195312 30.640625 -26.65625 C 33.378906 -30.03125 36.75 -31.71875 40.75 -31.71875 Z M 40.75 -31.71875 "/></g></g></g><g fill="#ffffff" fill-opacity="1"><g transform="translate(280.20283, 76.4777)"><g><path d="M 28.921875 -15.46875 L 45.15625 -41.65625 L 54.390625 -41.65625 L 52.359375 0 L 42.296875 0 L 43.546875 -23.265625 L 29.09375 0 L 23.5625 0 L 18.140625 -23.328125 L 10.296875 0 L 0 0 L 14.15625 -41.65625 L 22.84375 -41.65625 Z M 28.921875 -15.46875 "/></g></g></g><g fill="#ffffff" fill-opacity="1"><g transform="translate(336.178729, 76.4777)"><g><path d="M 19.6875 -31.71875 C 22.664062 -31.71875 25.304688 -31.070312 27.609375 -29.78125 C 29.910156 -28.488281 31.691406 -26.734375 32.953125 -24.515625 C 34.222656 -22.296875 34.859375 -19.859375 34.859375 -17.203125 C 34.859375 -15.566406 34.644531 -14.015625 34.21875 -12.546875 L 11.1875 -12.546875 C 11.425781 -10.648438 12.097656 -9.191406 13.203125 -8.171875 C 14.316406 -7.160156 15.785156 -6.65625 17.609375 -6.65625 C 18.992188 -6.65625 20.222656 -6.953125 21.296875 -7.546875 C 22.367188 -8.148438 23.144531 -8.890625 23.625 -9.765625 L 33.375 -9.765625 C 32.101562 -6.742188 30.03125 -4.226562 27.15625 -2.21875 C 24.28125 -0.21875 20.859375 0.78125 16.890625 0.78125 C 13.992188 0.78125 11.382812 0.164062 9.0625 -1.0625 C 6.75 -2.300781 4.925781 -4.019531 3.59375 -6.21875 C 2.269531 -8.414062 1.609375 -10.90625 1.609375 -13.6875 C 1.609375 -16.820312 2.378906 -19.765625 3.921875 -22.515625 C 5.472656 -25.273438 7.625 -27.5 10.375 -29.1875 C 13.132812 -30.875 16.238281 -31.71875 19.6875 -31.71875 Z M 19.34375 -24.21875 C 17.59375 -24.21875 16.09375 -23.71875 14.84375 -22.71875 C 13.59375 -21.726562 12.648438 -20.40625 12.015625 -18.75 L 25.578125 -18.75 C 25.460938 -20.375 24.867188 -21.691406 23.796875 -22.703125 C 22.722656 -23.710938 21.238281 -24.21875 19.34375 -24.21875 Z M 19.34375 -24.21875 "/></g></g></g></svg>